<?xml version="1.0" encoding="UTF-8"?>
<svg id="Capa_1" data-name="Capa 1" xmlns="http://www.w3.org/2000/svg" version="1.1" viewBox="0 0 401.7 141.7">
  <defs>
    <style>
      .cls-1 {
        fill: #aa9d83;
        stroke-width: 0px;
      }
    </style>
  </defs>
  <g>
    <path class="cls-1" d="M94.7,111.4l-1.6-3.4h-.8v3.4h-2.2v-9.1h3.6c2,0,3.1,1.4,3.1,2.9s-.8,2-1.5,2.4l2,3.8h-2.6ZM93.6,104.3h-1.3v1.9h1.3c.6,0,1-.4,1-.9s-.4-.9-1-.9Z"/>
    <path class="cls-1" d="M103.6,111.4v-9.1h6.2v2h-4v1.5h3.4v2h-3.4v1.6h4v2h-6.2Z"/>
    <path class="cls-1" d="M119.1,111.5c-1.4,0-2.5-.3-3.5-1.2l1.4-1.4c.5.5,1.3.6,2,.6s1.3-.3,1.3-.8,0-.4-.2-.5c-.1-.1-.3-.2-.6-.2l-1.1-.2c-.8-.1-1.4-.4-1.8-.8-.4-.4-.6-1.1-.6-1.8,0-1.7,1.3-2.9,3.3-2.9s2.3.3,3.1,1.1l-1.4,1.4c-.6-.6-1.3-.5-1.7-.5-.8,0-1.1.4-1.1.8s0,.3.2.4c.1.1.3.2.6.3l1.1.2c.8.1,1.4.4,1.8.8.5.5.7,1.2.7,2,0,1.9-1.6,2.9-3.5,2.9Z"/>
    <path class="cls-1" d="M135,110.4c-.7.7-1.4,1-2.6,1s-1.9-.4-2.6-1c-1-1-.9-2.2-.9-3.6s0-2.7.9-3.6c.7-.7,1.4-1,2.6-1s1.9.4,2.6,1c1,1,.9,2.2.9,3.6s0,2.7-.9,3.6ZM133.4,104.6c-.2-.2-.5-.4-.9-.4s-.7.2-.9.4c-.2.3-.3.6-.3,2.2s.1,2,.3,2.2c.2.2.5.4.9.4s.7-.2.9-.4c.2-.3.3-.6.3-2.2s-.1-2-.3-2.2Z"/>
    <path class="cls-1" d="M147.3,111.4l-1.6-3.4h-.8v3.4h-2.2v-9.1h3.6c2,0,3.1,1.4,3.1,2.9s-.8,2-1.5,2.4l2,3.8h-2.6ZM146.2,104.3h-1.3v1.9h1.3c.6,0,1-.4,1-.9s-.4-.9-1-.9Z"/>
    <path class="cls-1" d="M160.1,104.2v7.1h-2.2v-7.1h-2.2v-2h6.7v2h-2.2Z"/>
    <path class="cls-1" d="M179.5,111.5c-1.4,0-2.5-.3-3.5-1.2l1.4-1.4c.5.5,1.3.6,2,.6s1.3-.3,1.3-.8,0-.4-.2-.5c-.1-.1-.3-.2-.6-.2l-1.1-.2c-.8-.1-1.4-.4-1.8-.8-.4-.4-.6-1.1-.6-1.8,0-1.7,1.3-2.9,3.3-2.9s2.3.3,3.1,1.1l-1.4,1.4c-.6-.6-1.3-.5-1.7-.5-.8,0-1.1.4-1.1.8s0,.3.2.4c.1.1.3.2.6.3l1.1.2c.8.1,1.4.4,1.8.8.5.5.7,1.2.7,2,0,1.9-1.6,2.9-3.5,2.9Z"/>
    <path class="cls-1" d="M194.7,111.4l-.4-1.4h-2.8l-.4,1.4h-2.4l3.3-9.1h1.7l3.3,9.1h-2.4ZM192.9,105.7l-.8,2.4h1.6l-.8-2.4Z"/>
    <path class="cls-1" d="M208.3,111.4l-2.9-4.6v4.6h-2.2v-9.1h2l2.9,4.6v-4.6h2.2v9.1h-2Z"/>
    <path class="cls-1" d="M221.2,104.2v7.1h-2.2v-7.1h-2.2v-2h6.7v2h-2.2Z"/>
    <path class="cls-1" d="M234.3,111.4l-.4-1.4h-2.8l-.5,1.4h-2.4l3.3-9.1h1.7l3.3,9.1h-2.4ZM232.5,105.7l-.8,2.4h1.6l-.8-2.4Z"/>
    <path class="cls-1" d="M254.3,108.1h-1.4v3.3h-2.2v-9.1h3.6c2,0,3.1,1.4,3.1,2.9s-1.1,2.9-3.1,2.9ZM254.2,104.3h-1.3v1.9h1.3c.6,0,1-.4,1-.9s-.4-.9-1-.9Z"/>
    <path class="cls-1" d="M269.7,110.4c-.7.7-1.4,1-2.6,1s-1.9-.4-2.6-1c-1-1-.9-2.2-.9-3.6s0-2.7.9-3.6c.7-.7,1.4-1,2.6-1s1.9.4,2.6,1c1,1,.9,2.2.9,3.6s0,2.7-.9,3.6ZM268,104.6c-.2-.2-.5-.4-.9-.4s-.7.2-.9.4c-.2.3-.3.6-.3,2.2s.1,2,.3,2.2c.2.2.5.4.9.4s.7-.2.9-.4c.2-.3.3-.6.3-2.2s-.1-2-.3-2.2Z"/>
    <path class="cls-1" d="M282.5,111.4l-2.9-4.6v4.6h-2.2v-9.1h2l2.9,4.6v-4.6h2.2v9.1h-2Z"/>
    <path class="cls-1" d="M294,111.5c-1.4,0-2.5-.3-3.5-1.2l1.4-1.4c.5.5,1.3.6,2,.6s1.3-.3,1.3-.8,0-.4-.2-.5c-.1-.1-.3-.2-.6-.2l-1.1-.2c-.8-.1-1.4-.4-1.8-.8-.4-.4-.6-1.1-.6-1.8,0-1.7,1.3-2.9,3.3-2.9s2.3.3,3.1,1.1l-1.4,1.4c-.6-.6-1.3-.5-1.7-.5-.8,0-1.1.4-1.1.8s0,.3.2.4c.1.1.3.2.6.3l1.1.2c.8.1,1.4.4,1.8.8.5.5.7,1.2.7,2,0,1.9-1.6,2.9-3.5,2.9Z"/>
    <path class="cls-1" d="M309.3,111.4l-.4-1.4h-2.8l-.4,1.4h-2.4l3.3-9.1h1.7l3.3,9.1h-2.4ZM307.5,105.7l-.8,2.4h1.6l-.8-2.4Z"/>
  </g>
  <g>
    <path class="cls-1" d="M104,64.4c1.2-.4,2.1-1.1,2.6-2.2-.2.2-.4.3-.7.5-.7.5-1.3,1.1-2,1.7"/>
    <path class="cls-1" d="M58.2,36.1c2.2,0,3.2.5,3.2,2.7v3.6c0,2.3-1.1,2.2-3.2,2.7l-16.1,4.2v-13.2h16.1ZM35.1,64.8h7v-8.4l19.3-5.4c4.2-1.3,6.9-1.9,6.9-6.6v-7.6c0-4.8-2.2-6.6-6.9-6.6h-26.3v34.6Z"/>
    <path class="cls-1" d="M235.5,41.4h13.4c2.7,0,2.7.2,2.7,2.2v2.9c0,2.2,0,2.3-3,2.3-.1,0-10.2,0-13.1,0v-7.4ZM230.7,63.5c.5-.3.9-.5,1.3-.5,1.1,0,1.4.9,1.5,1.8.7.1,1.5.2,2.4.2h21c0,0,0-5.5,0-5.5h-21.4v-5.5c2.9,0,13.3,0,13.5,0,5.6,0,9.3-.3,9.3-5.8v-5.3c0-1.5,0-2.6-.3-3.5-.2-.7-.5-1.4-1-1.9,0,0,0,0,0,0,0,0-.1-.1-.2-.2,0,0-.2-.2-.3-.2,0,0,0,0,0,0-1-.7-2.5-.9-4.6-.9h-15.8c-5,0-6.6,1.4-6.6,6.8v15.2c0,2.7.4,4.4,1.4,5.4"/>
    <path class="cls-1" d="M107.4,59.3c0-.5,0-1,0-1.6v-21.9h-7.2v22.8h-16.5v-22.8h-7.1v21.9c0,5.4,1.7,7.1,7.1,7.1h16.2c2.1-2.5,4.7-4.4,7.5-5.5"/>
    <path class="cls-1" d="M118.9,64.2c0,.3,0,.5,0,.6h5.9v-23.2h16.6v-5.8s-.5,0-.5,0h-23.2v24.9c.8,1,1.3,2.2,1.3,3.5"/>
    <path class="cls-1" d="M196,58.9v-17h16.4c2.2,0,3.1.9,3.1,3.1s0,5.4,0,6.5v4.6c0,2.3-1,2.8-3.3,2.8h-16.3ZM188.9,64.9h26.7c4.8,0,7-1.9,7-6.7v-10.7c0-4.8,0-11.3-7-11.3h-19.6v-6h-7.1v34.6Z"/>
    <path class="cls-1" d="M366.6,64.8v-16.2c0-4.8,0-12.1-7-12.1h-16.7v-6.3h-7.1v34.6h7.1v-22.7h13.6c2.2,0,3.1.9,3.1,3.1s0,5.1,0,6.2v13.3h7Z"/>
    <path class="cls-1" d="M173.3,35.9h-19.5c-5.4,0-7.1,1.7-7.1,7.1v14.8c0,5.5,1.6,7.1,7.1,7.1h19.5c5.4,0,7.1-1.7,7.1-7.1v-14.8c0-5.5-1.6-7.1-7.1-7.1M173.2,58.5h-19.3v-16.5h19.3v16.5Z"/>
    <path class="cls-1" d="M306.5,41.3v18h16.7v-4.7h6.2s0,3.4,0,3.4c0,5.4-1.6,6.8-6.7,6.8h-15.8c-5.1,0-6.6-1.5-6.6-6.8v-15.2c0-5.4,1.6-6.8,6.6-6.8h15.8c5,0,6.7,1.4,6.7,6.8v2.8h-6.2s0-4.3,0-4.3h-16.7Z"/>
    <path class="cls-1" d="M286.9,36h-21s0,5.5,0,5.5h21.4s0,5.5,0,5.5c0,0-13.4,0-13.5,0-5.4,0-9.4.3-9.4,5.7v5.3c0,1.5,0,2.6.3,3.5.2.7.5,1.4,1,1.9,0,0,0,0,0,0,0,0,.1.1.2.2,0,0,.2.2.3.2,0,0,0,0,0,0,1,.7,2.5.9,4.6.9h15.8c5,0,6.6-1.4,6.6-6.8v-15.2c0-5.3-1.5-6.8-6.6-6.8M273.9,59.5c-2.7,0-2.7-.2-2.7-2.2v-2.9c0-2.2,0-2.3,3-2.3.1,0,10.2,0,13.1,0v7.4h-13.4Z"/>
    <path class="cls-1" d="M156.9,76.5c0,0,.1,0,.3-.3.7-1.2,1.3-2.4,1.3-3.1s-.3-1.1-.6-1.1c-.7,0-1.3,1.8-1.3,4.3,0,0,.1,0,.1,0h.2ZM169.6,84.8c.1-.4.2-.8.1-1.3,0-.8-.6-1.8-1.4-2.1-.9-.4-2,.3-2.9.6-1,.4-2,.9-2.9,1.4-1.1.7-1.6.8-2.9,1.5-1,.5-1.9,1-3.1,1.3-.2,0-2.5.6-2.5.6,0-.5.2-1.2.4-1.8.3-1,1.1-1.6,1.3-2.6.1-.5,0-1-.6-.7-.3.1-.7.5-1,.6-1.6,1.1-5.2,2.3-6,2.6h0s0,0-.1,0c0,0,0,0,0,0h0c-.6.3-2.7,1.1-4.1,1.2.5-.8.9-1.7.9-2.6,0-.4-.1-.8-.3-1.2,0-.2-.4-1-.7-1-.8-.2-1.3-.2-2,0-.7.3-1.5.8-2.2,1.1-.8.3-1.5.7-2.3,1-.9.4-1.7.8-2.6,1.3,0,0,0,0,0,0-.3.2-2.8,1.3-3.8,1.6-.3,0-.9.4-1.2.1-.5-.3-.1-1.2,0-1.6.2-.8.4-1.3.4-1.3v-.3c0-.2,0-.3,0-.4h0c0,0,0-.2,0-.2h0c0-.2,0-.2.1-.4,0,0,.1-.3.1-.3,0-.4-.3-.7-.7-.7h-.4c0,0-.4-.2-.4-.2-.9,0-2.4.6-3.5,1.2-.7.4-1.3.8-1.6.8l-5,2v1.3s4.5-1.8,4.5-1.8c-.5.2-.4,1.6-.4,1.9.1.7.3,1.4,1,1.8.9.5,1.9,0,2.6-.5.6-.4,1-1.1,1.6-1.4h.1c0,0,.1,0,.1,0,0,0,0,.2.1.4,0,.8.6,1.8,1.4,1.7.9-.1,5-2.2,5-2.3,0,0,0,0,0,0,.6-.3,2.7-1.4,3.8-2.2,1.2-.7,3.1-1.9,4.4-1,.4.2.2,1.4.1,1.7-.2.5-.3,1.2-.7,1.6-1.1,0-2.3-.4-3.4-.4-.5,0-.6.6-.7,1.1,0,1.1.6,2,1.8,1.9,1.1-.1,2-1,2.8-1.7h1.4c1.5-.3,3.1-.8,3.6-1h0s4.6-1.4,5.7-2c0,.4-.4,1-.5,1.4-.2.6-.3,1.1-.4,1.7,0,.7-.1,1.2.7,1.1,1.1-.2,2.2-.6,3.3-1,.6-.2,2.1-.9,2.6-1.2h0c0,0,.1,0,.1,0,.6-.3,1.1-.5,1.4-.8.3-.2,1.1-.6,2.4-1.4,1.3-.8,2.1-1.2,3-1.2s1.4.7,1.4,1.7-.2,1.4-.5,1.7c-1.5,0-3.2-.8-4.6,0-.4.2.2,1.5.3,1.8.3.6.9.8,1.5.8,1,0,1.7-.3,3.3-1.7h1.4c1.4-.3,2.4-.8,3.5-1.4,1.1-.6,2.1-1.2,3.3-1.6-2.3.7-4.9,1.9-7.3,2.1.3,0,.7-1.3.7-1.5M129.5,83.2c-.2.5-.7,1.1-1.2,1.7,0,0-1,1-1,1-.5.3-2.6,2-3,.6-.3-1,.9-1.7,1.5-2.3.8-.8,1.8-1.4,2.9-1.4s1,.2,1,.3c0,0,0,0-.1,0M140.2,88.1c-.5,0-.9-.3-.9-.8s.2-.4.4-.4.2,0,.5,0c.2,0,.6,0,1.1.2h.4c-.8.8-1.1.9-1.6.9M165.5,88c-.3.1-.9.2-1.2,0-.3-.2-.9-1-.3-1.3.6-.4,1.5.2,2.2.4.1,0,.3,0,.4,0-.2,0-.8.7-1.1.8M224.9,83.1c.2-.3.6-.8,1.1-1.4l1-1.4c3.2-4.4,5.9-11.2,5.9-14.6s-.2-2.2-1-2.2-2.3,1.3-3.7,3.4c-2.8,4.3-5.1,10.8-5.1,14.3s0,1.2.2,2.2c-1,1-1.5,1.3-3,2.1l-1.7.8h-.1c0,0-.7.3-.7.3-2.2.7-3.8,1-5.3,1s-2.3-.4-2.7-1.5c4.2-.9,5.1-1.5,5.2-3.3,0-.8-.7-1.5-1.7-1.5-2.6,0-4.9,1.9-5.2,4.3l-2.9.7h-.1c-1.4.5-2.1.7-3,.7-2.1,0-2.9-1.3-2.9-4.4v-.3c4.6-9,5.9-11.8,5.9-13.7s-.2-1.1-.5-1.1c-.7,0-2.3,2.4-3.8,6.2-2.1,5-2.5,6.1-3.1,9-1.1-.3-1.7-.5-2.6-.5-2.5,0-4.3,1.6-6.3,2.8-2.4,1.4-5,2.4-7.5,3.4,2.8.2,5.7-1.9,8.3-2.9-.1.4-.1.6-.1.8,0,1.2.8,2.1,1.9,2.1,2.3,0,5.2-1.8,6.6-4.3.2,2.2,1.8,3.9,3.5,3.9s1.7-.1,3.7-.8h.2c0,0,3.1-.8,3.1-.8.6,1.5,1.8,2.1,3.8,2.1s3.3-.4,6.3-1.3h.1c3-1.5,3.7-1.9,5-3.1-.3.3,1.7,2.4,2,2.6.8.6,1.7.9,2.7,1.1,2.3.5,4.3.4,6.6.2-4-.8-8.4-.7-10.1-5.1M200.6,78c0-.1.2-.5.4-1.1.4-1.3,1.4-3.6,2.1-4.9.4-.9.6-1.2.7-1.2s0,0,0,.2v.3c-.2.7-.2,1-.4,1.3l-.5,1.1-.9,1.9c-.1.3-.4.9-.9,1.7-.4.8-.5.9-.7,1.3h0c0-.3.1-.4.2-.5M195.1,86.3c-1,.7-2.3,1.2-3,1.2s-1-.3-1-.7c0-.7.5-1.4,1.5-2.1,1.2-.9,2.7-1.4,3.9-1.4s.7,0,1.4.3c-.5,1.1-1.4,2.1-2.7,2.8M210.8,83.4c.8-.6,1.9-1.1,2.4-1.1s.2,0,.4.1c0,0,.3.3.3.5,0,.7-1.3,1.5-3.9,2.2,0-.8.3-1.3.9-1.7M224.6,81.2c0-2.1.9-5.3,2.6-9.2,1.8-4.2,3.8-7.5,4.8-7.5s.5.8.5,1.7c0,3.5-3.2,10.2-7.8,16.1,0-.5,0-.7,0-1.1M298.8,83.2c.3-.5.6-1.1.6-1.4s0-.3-.1-.3c-.4.2-1.2.4-1.2.4-.4.2-1.2.4-1.6.4s-.8-.3-1-.7c0-.3,0-.4,0-.9,0-.7-.1-1.2-.5-1.2s-.6.7-.6,1.5v.6s0,.3,0,.3c-.7,1.3-1.9,2.1-4.4,3.1l-.6.3h-.1c0,0-3.8,1.3-3.8,1.3l-.9.2h0c-.2,0-.3,0-.3-.2,0-.3,0-.7.2-1.1.2-.8.4-1.3.4-1.4v-.3c0-.2,0-.3,0-.4h0c0,0,0-.2,0-.2h0c0-.2,0-.3.1-.4,0,0,.1-.3.1-.3,0-.4-.3-.7-.7-.7h-.4c0,0-.4-.2-.4-.2-.9,0-2.4.6-3.5,1.2-.7.4-1.3.8-1.6.9l-4.8,2.2h-.1c-2.5,1.8-4.6,1.5-5.5-2-1.3-5.2-4.7,3.6-7.1,1.5-1.5-1.3-.2-4.8-2.9-3.6-1.5.7-3.1,2.7-4.4,3.9,0-1.2.2-2.6.1-4,0,.8-2.8,2.9-3.4,3.5-.7.6-1.6,1.1-2.4,1.6-.9.5-1.8.9-2.8,1.1-.9.1-1.8-.2-2.6,0,1.5.7,3.5.6,5.1.1,1.5-.5,2.7-1.8,4.3-2,0,.6-.3,1.8.1,2.3.6.7,1.4.3,1.4-.7,0,.3.2.6.5.7,1.1-1,2.2-4.2,3.8-4.2,2.2.1,1.7,4.7,4.4,3.8,1.6-.6,2.2-3.5,4.1-3.2,1.3.2,1.4,2.4,2.3,3.2,1.2,1,3.9,0,5.1-.8h.1c0,0,4.3-2.1,4.3-2.1-.3.6-.4.9-.4,1.4,0,1.4.9,2.3,2.2,2.3s1.2-.2,1.6-.6l1.5-1.3h.1c0,0,.2,0,.2,0,0,0,0,.2.1.4,0,.7.3,1.1.8,1.1s1-.2,1.7-.3l3.7-1.3h.1c2.9-1.2,4.1-2,5.5-3.9.7.5.8.6,1.3.6s.5,0,.9-.3c-.8,3.1-.1,5.3,3.4,5.5.8,0,1.9,0,2.9,0,1.1,0,2.2-.4,2.8-.9-2.5-.2-10.5,0-7.4-4.6M284.1,83.7c-.2.5-.7,1.1-1.2,1.7-1.2,1.2-2.5,1.9-3.3,1.9s-.4-.2-.4-.5v-.5c0-.2.2-.4.5-.8l.6-.7c.9-.9,2-1.5,3-1.5s1,.2,1,.3c0,0,0,0,0,0"/>
    <path class="cls-1" d="M118.7,86.5l-6.4,2.4c-2.2.6-4.9,1.2-6.3,1.2s-2.5-.3-4.2-1.7c-4.2-1.1-6.2-4.4-6.2-10.2,0-10.2,8-19.3,16.8-19.3s6.1,2.3,6.1,5.2,0,.7-.3.7-.2-.1-.2-.7c-.2-2.6-2.5-4.6-5.1-4.6s-4.9.9-7,2.5c-5.2,3.9-8.8,11.2-8.8,17.7s1.6,6.7,4.1,7.5c-1.3-2.3-1.6-3.5-1.6-6,0-4.1,1.2-8.1,3.8-12.2,2.9-4.5,7.1-7.6,10.3-7.6s5.1,3.5,5.1,8.2c0,8.9-6.3,17.6-13.6,18.9,1,.3,1.3.3,2.1.3,1.2,0,2.2-.3,4.3-.8l7.3-3v1.2ZM113.4,62.5c-2.4,0-5.1,2.2-8.1,6.4-3,4.2-4.7,9.2-4.7,13.6s1.4,5.5,3.7,5.5c3.4,0,7.5-2.8,10.3-7.1,2.1-3.3,3.5-7.6,3.5-10.9s-1.9-7.4-4.7-7.4"/>
  </g>
</svg>