<?xml version="1.0" encoding="utf-8"?>
<!-- Generator: Adobe Illustrator 16.0.0, SVG Export Plug-In . SVG Version: 6.00 Build 0)  -->
<!DOCTYPE svg PUBLIC "-//W3C//DTD SVG 1.1//EN" "http://www.w3.org/Graphics/SVG/1.1/DTD/svg11.dtd">
<svg version="1.1" id="Capa_1" xmlns="http://www.w3.org/2000/svg" xmlns:xlink="http://www.w3.org/1999/xlink" x="0px" y="0px"
	 width="694.488px" height="170.079px" viewBox="73.7 212.601 694.488 170.079"
	 enable-background="new 73.7 212.601 694.488 170.079" xml:space="preserve">
<g>
	<path fill="#FFFFFF" d="M198.474,382.626l-3.354-7.126h-1.677v7.126h-4.61v-19.072h7.545c4.191,0,6.497,2.935,6.497,6.078
		s-1.677,4.191-3.144,5.03l4.191,7.964H198.474L198.474,382.626z M196.168,367.746h-2.725v3.981h2.725
		c1.258,0,2.096-0.838,2.096-1.886s-0.838-1.887-2.096-1.887V367.746z"/>
	<path fill="#FFFFFF" d="M217.126,382.626v-19.072h12.994v4.192h-8.383v3.144h7.126v4.191h-7.126v3.354h8.383v4.191H217.126z"/>
	<path fill="#FFFFFF" d="M249.612,382.836c-2.934,0-5.239-0.629-7.335-2.516l2.934-2.934c1.048,1.048,2.725,1.257,4.192,1.257
		c1.467,0,2.725-0.628,2.725-1.676c0-1.049,0-0.839-0.42-1.049c-0.209-0.209-0.629-0.419-1.257-0.419l-2.306-0.419
		c-1.677-0.21-2.935-0.838-3.772-1.677c-0.839-0.838-1.258-2.306-1.258-3.772c0-3.563,2.725-6.078,6.916-6.078
		c4.192,0,4.821,0.629,6.497,2.306l-2.934,2.935c-1.258-1.258-2.725-1.048-3.563-1.048c-1.676,0-2.305,0.838-2.305,1.676
		c0,0.839,0,0.629,0.419,0.839c0.21,0.21,0.629,0.419,1.258,0.629l2.305,0.419c1.677,0.21,2.935,0.838,3.772,1.677
		c1.048,1.048,1.468,2.515,1.468,4.191c0,3.982-3.354,6.078-7.336,6.078V382.836z"/>
	<path fill="#FFFFFF" d="M282.935,380.53c-1.467,1.467-2.934,2.096-5.448,2.096c-2.516,0-3.982-0.838-5.449-2.096
		c-2.096-2.096-1.887-4.611-1.887-7.545c0-2.935,0-5.659,1.887-7.545c1.467-1.467,2.934-2.096,5.449-2.096
		c2.515,0,3.981,0.838,5.448,2.096c2.097,2.096,1.887,4.61,1.887,7.545C284.822,375.919,284.822,378.643,282.935,380.53z
		 M279.582,368.374c-0.42-0.419-1.048-0.838-1.887-0.838c-0.838,0-1.467,0.419-1.886,0.838c-0.42,0.629-0.629,1.258-0.629,4.611
		s0.209,4.191,0.629,4.61c0.419,0.42,1.048,0.839,1.886,0.839c0.839,0,1.467-0.419,1.887-0.839c0.419-0.629,0.628-1.257,0.628-4.61
		S280.001,368.794,279.582,368.374z"/>
	<path fill="#FFFFFF" d="M308.714,382.626l-3.354-7.126h-1.677v7.126h-4.61v-19.072h7.545c4.191,0,6.497,2.935,6.497,6.078
		s-1.677,4.191-3.145,5.03l4.192,7.964H308.714L308.714,382.626z M306.408,367.746h-2.725v3.981h2.725
		c1.258,0,2.096-0.838,2.096-1.886s-0.838-1.887-2.096-1.887V367.746z"/>
	<path fill="#FFFFFF" d="M335.54,367.536v14.88h-4.61v-14.88h-4.611v-4.191h14.042v4.191h-4.61H335.54z"/>
	<path fill="#FFFFFF" d="M376.199,382.836c-2.935,0-5.24-0.629-7.336-2.516l2.935-2.934c1.048,1.048,2.725,1.257,4.191,1.257
		s2.725-0.628,2.725-1.676c0-1.049,0-0.839-0.419-1.049c-0.21-0.209-0.629-0.419-1.258-0.419l-2.306-0.419
		c-1.677-0.21-2.934-0.838-3.772-1.677c-0.838-0.838-1.257-2.306-1.257-3.772c0-3.563,2.725-6.078,6.916-6.078
		s4.82,0.629,6.497,2.306l-2.935,2.935c-1.257-1.258-2.725-1.048-3.563-1.048c-1.677,0-2.306,0.838-2.306,1.676
		c0,0.839,0,0.629,0.419,0.839c0.21,0.21,0.629,0.419,1.258,0.629l2.306,0.419c1.677,0.21,2.934,0.838,3.772,1.677
		c1.048,1.048,1.467,2.515,1.467,4.191c0,3.982-3.354,6.078-7.335,6.078V382.836z"/>
	<path fill="#FFFFFF" d="M408.055,382.626l-0.838-2.935h-5.868l-0.839,2.935h-5.029l6.916-19.072h3.563l6.916,19.072h-5.029H408.055
		z M404.282,370.679l-1.677,5.03h3.354L404.282,370.679z"/>
	<path fill="#FFFFFF" d="M436.559,382.626l-6.078-9.641v9.641h-4.611v-19.072h4.192l6.077,9.642v-9.642h4.611v19.072H436.559z"/>
	<path fill="#FFFFFF" d="M463.594,367.536v14.88h-4.61v-14.88h-4.61v-4.191h14.042v4.191h-4.611H463.594z"/>
	<path fill="#FFFFFF" d="M491.05,382.626l-0.839-2.935h-5.868l-1.048,2.935h-5.03l6.917-19.072h3.563l6.916,19.072h-5.03H491.05z
		 M487.278,370.679l-1.677,5.03h3.353L487.278,370.679z"/>
	<path fill="#FFFFFF" d="M532.966,375.71h-2.935v6.916h-4.61v-19.072h7.545c4.191,0,6.497,2.935,6.497,6.078
		S537.157,375.71,532.966,375.71L532.966,375.71z M532.756,367.746h-2.725v3.981h2.725c1.258,0,2.096-0.838,2.096-1.886
		s-0.838-1.887-2.096-1.887V367.746z"/>
	<path fill="#FFFFFF" d="M565.241,380.53c-1.467,1.467-2.934,2.096-5.449,2.096c-2.515,0-3.981-0.838-5.449-2.096
		c-2.096-2.096-1.886-4.611-1.886-7.545c0-2.935,0-5.659,1.886-7.545c1.468-1.467,2.935-2.096,5.449-2.096
		c2.516,0,3.982,0.838,5.449,2.096c2.096,2.096,1.887,4.61,1.887,7.545C567.128,375.919,567.128,378.643,565.241,380.53z
		 M561.679,368.374c-0.42-0.419-1.048-0.838-1.887-0.838c-0.838,0-1.467,0.419-1.886,0.838c-0.42,0.629-0.629,1.258-0.629,4.611
		s0.21,4.191,0.629,4.61c0.419,0.42,1.048,0.839,1.886,0.839c0.839,0,1.468-0.419,1.887-0.839c0.419-0.629,0.628-1.257,0.628-4.61
		S562.098,368.794,561.679,368.374z"/>
	<path fill="#FFFFFF" d="M592.068,382.626l-6.077-9.641v9.641h-4.611v-19.072h4.191l6.078,9.642v-9.642h4.611v19.072H592.068z"/>
	<path fill="#FFFFFF" d="M616.17,382.836c-2.935,0-5.24-0.629-7.336-2.516l2.935-2.934c1.048,1.048,2.725,1.257,4.191,1.257
		s2.725-0.628,2.725-1.676c0-1.049,0-0.839-0.419-1.049c-0.21-0.209-0.629-0.419-1.258-0.419l-2.306-0.419
		c-1.677-0.21-2.934-0.838-3.772-1.677c-0.838-0.838-1.257-2.306-1.257-3.772c0-3.563,2.725-6.078,6.916-6.078
		s4.82,0.629,6.497,2.306l-2.935,2.935c-1.257-1.258-2.725-1.048-3.563-1.048c-1.677,0-2.306,0.838-2.306,1.676
		c0,0.839,0,0.629,0.419,0.839c0.21,0.21,0.629,0.419,1.258,0.629l2.306,0.419c1.677,0.21,2.934,0.838,3.772,1.677
		c1.048,1.048,1.467,2.515,1.467,4.191c0,3.982-3.354,6.078-7.335,6.078V382.836z"/>
	<path fill="#FFFFFF" d="M648.236,382.626l-0.838-2.935h-5.868l-0.839,2.935h-5.029l6.916-19.072h3.563l6.916,19.072h-5.029H648.236
		z M644.463,370.679l-1.677,5.03h3.354L644.463,370.679L644.463,370.679z"/>
</g>
<g>
	<path fill="#FFFFFF" d="M217.965,284.122c2.515-0.838,4.401-2.305,5.449-4.61c-0.419,0.419-0.839,0.629-1.468,1.048
		c-1.467,1.048-2.724,2.306-4.191,3.563"/>
	<path fill="#FFFFFF" d="M121.977,224.81c4.61,0,6.706,1.048,6.706,5.659v7.545c0,4.82-2.305,4.61-6.706,5.658l-33.743,8.803V224.81
		H121.977L121.977,224.81z M73.563,284.961h14.671v-17.605l40.449-11.317c8.803-2.725,14.461-3.981,14.461-13.832v-15.928
		c0-10.061-4.61-13.833-14.461-13.833h-55.12V284.961z"/>
	<path fill="#FFFFFF" d="M493.565,235.919h28.084c5.658,0,5.658,0.419,5.658,4.61v6.078c0,4.61,0,4.82-6.287,4.82
		c-0.21,0-21.377,0-27.455,0V235.919L493.565,235.919z M483.505,282.236c1.048-0.629,1.886-1.048,2.725-1.048
		c2.305,0,2.934,1.886,3.144,3.772c1.467,0.209,3.144,0.419,5.029,0.419h44.013v-11.527h-44.851v-11.526c6.078,0,27.874,0,28.293,0
		c11.737,0,19.491-0.629,19.491-12.156v-11.107c0-3.144,0-5.449-0.628-7.336c-0.42-1.467-1.049-2.934-2.097-3.981l0,0
		c0,0-0.209-0.21-0.419-0.419c0,0-0.419-0.42-0.629-0.42l0,0c-2.096-1.467-5.239-1.886-9.641-1.886h-33.113
		c-10.479,0-13.833,2.934-13.833,14.251v31.856c0,5.659,0.839,9.222,2.935,11.317"/>
	<path fill="#FFFFFF" d="M225.091,273.433c0-1.048,0-2.096,0-3.354v-45.898h-15.09v47.785H175.42v-47.785h-14.881v45.898
		c0,11.317,3.563,14.881,14.881,14.881h33.952C213.774,279.72,219.223,275.739,225.091,273.433"/>
	<path fill="#FFFFFF" d="M249.193,283.703c0,0.629,0,1.048,0,1.258h12.365v-48.623h34.791v-12.156h-1.048h-48.623v52.187
		c1.677,2.096,2.725,4.61,2.725,7.335"/>
	<path fill="#FFFFFF" d="M410.78,272.595v-35.629h34.372c4.61,0,6.497,1.886,6.497,6.497c0,4.61,0,11.317,0,13.622v9.642
		c0,4.82-2.097,5.868-6.917,5.868h-34.161H410.78z M395.9,285.17h55.958c10.061,0,14.671-3.981,14.671-14.042v-22.425
		c0-10.06,0-23.683-14.671-23.683H410.78v-12.575H395.9v72.516V285.17z"/>
	<path fill="#FFFFFF" d="M768.326,284.961v-33.952c0-10.061,0-25.359-14.671-25.359h-35v-13.204h-14.881v72.516h14.881v-47.575
		h28.503c4.611,0,6.497,1.886,6.497,6.497c0,4.61,0,10.688,0,12.994v27.874h14.671V284.961z"/>
	<path fill="#FFFFFF" d="M363.205,224.391h-40.869c-11.317,0-14.88,3.563-14.88,14.88v31.019c0,11.527,3.354,14.88,14.88,14.88
		h40.869c11.317,0,14.88-3.563,14.88-14.88v-31.019C378.085,227.745,374.732,224.391,363.205,224.391 M362.995,271.757h-40.449
		v-34.581h40.449V271.757z"/>
	<path fill="#FFFFFF" d="M642.367,235.709v37.725h35v-9.851h12.994v7.126c0,11.317-3.354,14.252-14.042,14.252h-33.113
		c-10.688,0-13.833-3.144-13.833-14.252v-31.856c0-11.317,3.354-14.251,13.833-14.251h33.113c10.479,0,14.042,2.934,14.042,14.251
		v5.868h-12.994v-9.012H642.367L642.367,235.709z"/>
	<path fill="#FFFFFF" d="M601.289,224.601h-44.012v11.526h44.851v11.527c0,0-28.084,0-28.294,0c-11.317,0-19.7,0.629-19.7,11.946
		v11.107c0,3.144,0,5.449,0.628,7.336c0.42,1.467,1.049,2.934,2.097,3.981l0,0c0,0,0.209,0.21,0.419,0.419
		c0,0,0.419,0.42,0.629,0.42l0,0c2.096,1.467,5.239,1.886,9.641,1.886h33.113c10.479,0,13.833-2.934,13.833-14.251v-31.856
		c0-11.108-3.144-14.252-13.833-14.252 M574.044,273.852c-5.659,0-5.659-0.419-5.659-4.61v-6.078c0-4.61,0-4.82,6.288-4.82
		c0.209,0,21.377,0,27.455,0v15.509H574.044z"/>
	<path fill="#FFFFFF" d="M328.833,309.482c0,0,0.21,0,0.629-0.629c1.468-2.516,2.725-5.03,2.725-6.497
		c0-1.468-0.629-2.306-1.257-2.306c-1.468,0-2.725,3.772-2.725,9.012h0.209h0.419V309.482z M355.45,326.877
		c0.21-0.838,0.419-1.677,0.21-2.725c0-1.677-1.258-3.772-2.935-4.4c-1.886-0.839-4.191,0.628-6.078,1.257
		c-2.096,0.839-4.191,1.887-6.077,2.935c-2.306,1.467-3.354,1.677-6.078,3.144c-2.096,1.048-3.982,2.096-6.497,2.725
		c-0.419,0-5.239,1.258-5.239,1.258c0-1.048,0.419-2.516,0.838-3.772c0.629-2.097,2.306-3.354,2.725-5.449
		c0.21-1.048,0-2.096-1.258-1.468c-0.628,0.21-1.467,1.048-2.096,1.258c-3.353,2.306-10.897,4.82-12.574,5.449l0,0c0,0,0,0-0.21,0
		l0,0l0,0c-1.258,0.629-5.659,2.306-8.593,2.515c1.048-1.677,1.886-3.563,1.886-5.449c0-0.838-0.209-1.677-0.628-2.515
		c0-0.419-0.839-2.096-1.468-2.096c-1.677-0.419-2.725-0.419-4.191,0c-1.467,0.629-3.144,1.677-4.61,2.306
		c-1.677,0.629-3.145,1.467-4.82,2.096c-1.887,0.838-3.563,1.677-5.449,2.725l0,0c-0.629,0.419-5.869,2.725-7.965,3.354
		c-0.628,0-1.886,0.838-2.515,0.209c-1.048-0.629-0.21-2.515,0-3.354c0.419-1.677,0.838-2.725,0.838-2.725v-0.628
		c0-0.42,0-0.629,0-0.839l0,0v-0.419l0,0c0-0.419,0-0.419,0.21-0.839l0.21-0.628c0-0.839-0.629-1.468-1.468-1.468h-0.838
		l-0.838-0.419c-1.887,0-5.03,1.258-7.336,2.515c-1.467,0.839-2.725,1.677-3.354,1.677l-10.479,4.192v2.725l9.431-3.773
		c-1.048,0.42-0.838,3.354-0.838,3.982c0.209,1.467,0.629,2.935,2.096,3.772c1.886,1.048,3.982,0,5.449-1.048
		c1.258-0.838,2.096-2.306,3.354-2.934h0.209h0.21c0,0,0,0.419,0.21,0.838c0,1.677,1.257,3.772,2.934,3.563
		c1.887-0.209,10.479-4.61,10.479-4.82l0,0c1.257-0.629,5.658-2.934,7.964-4.61c2.515-1.467,6.497-3.982,9.222-2.096
		c0.838,0.419,0.419,2.934,0.209,3.563c-0.419,1.048-0.628,2.515-1.467,3.354c-2.306,0-4.82-0.839-7.126-0.839
		c-1.048,0-1.257,1.258-1.467,2.306c0,2.306,1.258,4.191,3.772,3.982c2.306-0.21,4.191-2.096,5.868-3.563h2.935
		c3.144-0.628,6.497-1.676,7.545-2.096l0,0c0,0,9.641-2.934,11.946-4.191c0,0.838-0.839,2.096-1.048,2.935
		c-0.42,1.257-0.629,2.305-0.839,3.563c0,1.467-0.209,2.515,1.467,2.306c2.306-0.42,4.611-1.258,6.917-2.096
		c1.257-0.42,4.401-1.887,5.449-2.516l0,0h0.209c1.258-0.629,2.306-1.048,2.935-1.677c0.629-0.419,2.306-1.257,5.029-2.934
		c2.725-1.677,4.401-2.516,6.288-2.516c1.886,0,2.934,1.468,2.934,3.563s-0.419,2.934-1.048,3.563c-3.144,0-6.706-1.677-9.641,0
		c-0.838,0.419,0.419,3.144,0.629,3.772c0.629,1.258,1.886,1.677,3.144,1.677c2.096,0,3.563-0.629,6.916-3.563h2.935
		c2.934-0.629,5.03-1.677,7.335-2.935c2.306-1.257,4.401-2.515,6.916-3.354c-4.82,1.468-10.269,3.982-15.299,4.401
		c0.629,0,1.467-2.725,1.467-3.144 M271.408,323.524c-0.419,1.048-1.467,2.305-2.516,3.563l-2.096,2.096
		c-1.048,0.629-5.449,4.191-6.287,1.258c-0.629-2.096,1.887-3.563,3.144-4.82c1.677-1.677,3.772-2.935,6.078-2.935
		s2.096,0.419,2.096,0.629c0,0,0,0-0.21,0 M293.833,333.793c-1.048,0-1.886-0.628-1.886-1.676s0.419-0.839,0.838-0.839
		s0.419,0,1.048,0c0.419,0,1.258,0,2.306,0.419h0.838c-1.676,1.677-2.305,1.887-3.353,1.887 M346.858,333.584
		c-0.629,0.209-1.886,0.419-2.515,0s-1.887-2.096-0.629-2.725c1.258-0.838,3.144,0.419,4.61,0.838c0.21,0,0.629,0,0.839,0
		c-0.42,0-1.677,1.468-2.306,1.677 M471.349,323.314c0.419-0.629,1.258-1.677,2.306-2.935l2.096-2.934
		c6.707-9.222,12.365-23.474,12.365-30.6s-0.419-4.61-2.096-4.61s-4.82,2.725-7.755,7.126c-5.868,9.012-10.688,22.635-10.688,29.97
		c0,7.336,0,2.516,0.419,4.611c-2.096,2.096-3.144,2.725-6.287,4.401l-3.563,1.677h-0.21l-1.467,0.628
		c-4.611,1.468-7.965,2.096-11.108,2.096s-4.82-0.838-5.658-3.144c8.802-1.886,10.688-3.144,10.897-6.916
		c0-1.677-1.467-3.144-3.563-3.144c-5.449,0-10.27,3.982-10.898,9.012l-6.077,1.468h-0.21c-2.935,1.048-4.401,1.467-6.287,1.467
		c-4.401,0-6.078-2.725-6.078-9.222v-0.629c9.641-18.862,12.365-24.73,12.365-28.713s-0.419-2.306-1.048-2.306
		c-1.467,0-4.82,5.03-7.964,12.994c-4.401,10.479-5.24,12.785-6.497,18.862c-2.306-0.628-3.563-1.048-5.449-1.048
		c-5.24,0-9.013,3.354-13.204,5.869c-5.029,2.934-10.479,5.029-15.718,7.125c5.868,0.42,11.945-3.981,17.395-6.077
		c-0.21,0.838-0.21,1.257-0.21,1.677c0,2.515,1.677,4.4,3.982,4.4c4.82,0,10.898-3.772,13.832-9.012
		c0.42,4.61,3.773,8.174,7.336,8.174s3.563-0.21,7.755-1.677h0.419l6.497-1.677c1.257,3.144,3.772,4.401,7.964,4.401
		s6.916-0.839,13.203-2.725h0.21c6.287-3.144,7.755-3.982,10.479-6.497c-0.629,0.629,3.563,5.03,4.191,5.449
		c1.677,1.258,3.563,1.886,5.658,2.306c4.821,1.048,9.013,0.838,13.833,0.419c-8.384-1.677-17.605-1.467-21.168-10.688
		 M420.42,312.626c0-0.21,0.42-1.048,0.839-2.306c0.838-2.725,2.934-7.545,4.401-10.27c0.838-1.887,1.257-2.516,1.467-2.516
		s0,0,0,0.42v0.629c-0.419,1.467-0.419,2.096-0.838,2.724l-1.048,2.306l-1.887,3.982c-0.21,0.629-0.838,1.887-1.886,3.563
		c-0.839,1.677-1.049,1.887-1.468,2.725l0,0c0-0.628,0.21-0.838,0.419-1.048 M408.894,330.021c-2.096,1.467-4.82,2.515-6.288,2.515
		c-1.467,0-2.096-0.629-2.096-1.467c0-1.468,1.048-2.935,3.145-4.401c2.515-1.887,5.658-2.935,8.173-2.935
		c2.516,0,1.468,0,2.935,0.629c-1.048,2.306-2.935,4.401-5.659,5.868 M441.798,323.943c1.677-1.258,3.981-2.306,5.03-2.306
		c1.048,0,0.419,0,0.838,0.21c0,0,0.629,0.629,0.629,1.048c0,1.467-2.725,3.144-8.174,4.61c0-1.677,0.629-2.725,1.886-3.563
		 M470.72,319.332c0-4.401,1.887-11.107,5.449-19.281c3.772-8.803,7.964-15.719,10.061-15.719c2.096,0,1.048,1.677,1.048,3.563
		c0,7.336-6.707,21.378-16.348,33.743c0-1.048,0-1.467,0-2.306 M626.23,323.524c0.629-1.049,1.258-2.306,1.258-2.935
		s0-0.629-0.21-0.629c-0.838,0.419-2.515,0.839-2.515,0.839c-0.839,0.419-2.516,0.838-3.354,0.838c-0.839,0-1.677-0.629-2.096-1.467
		c0-0.629,0-0.839,0-1.887c0-1.467-0.21-2.515-1.048-2.515c-0.839,0-1.258,1.467-1.258,3.144v1.258v0.629
		c-1.467,2.725-3.982,4.4-9.222,6.497l-1.257,0.628h-0.21l-7.964,2.725l-1.887,0.42l0,0c-0.419,0-0.629,0-0.629-0.42
		c0-0.628,0-1.467,0.42-2.305c0.419-1.677,0.838-2.725,0.838-2.935v-0.629c0-0.419,0-0.629,0-0.838l0,0v-0.419l0,0
		c0-0.42,0-0.629,0.21-0.839l0.209-0.629c0-0.838-0.628-1.467-1.467-1.467h-0.838l-0.839-0.419c-1.886,0-5.029,1.257-7.335,2.515
		c-1.468,0.839-2.725,1.677-3.354,1.887l-10.06,4.61h-0.21c-5.239,3.772-9.641,3.144-11.527-4.191
		c-2.725-10.898-9.85,7.545-14.88,3.144c-3.144-2.725-0.419-10.06-6.078-7.545c-3.144,1.467-6.497,5.658-9.222,8.174
		c0-2.516,0.419-5.449,0.21-8.384c0,1.677-5.868,6.078-7.126,7.336c-1.467,1.257-3.354,2.306-5.03,3.354
		c-1.886,1.048-3.772,1.886-5.868,2.305c-1.886,0.21-3.772-0.419-5.449,0c3.145,1.468,7.336,1.258,10.689,0.21
		c3.144-1.048,5.658-3.772,9.012-4.191c0,1.257-0.629,3.772,0.21,4.82c1.257,1.467,2.934,0.629,2.934-1.468
		c0,0.629,0.419,1.258,1.048,1.468c2.306-2.096,4.611-8.803,7.964-8.803c4.611,0.21,3.563,9.851,9.222,7.964
		c3.354-1.257,4.611-7.335,8.593-6.706c2.725,0.419,2.935,5.029,4.82,6.706c2.516,2.096,8.174,0,10.689-1.677h0.209l9.012-4.4
		c-0.628,1.257-0.838,1.886-0.838,2.934c0,2.935,1.887,4.82,4.611,4.82s2.515-0.419,3.353-1.257l3.144-2.725h0.21h0.419
		c0,0,0,0.419,0.21,0.838c0,1.467,0.629,2.306,1.677,2.306s2.096-0.419,3.563-0.629l7.755-2.725h0.21
		c6.077-2.515,8.593-4.191,11.526-8.174c1.468,1.048,1.677,1.258,2.725,1.258s1.048,0,1.887-0.629
		c-1.677,6.497-0.21,11.107,7.125,11.527c1.677,0,3.982,0,6.078,0c2.306,0,4.611-0.839,5.868-1.887
		c-5.239-0.419-22.006,0-15.509-9.641 M595.421,324.572c-0.419,1.048-1.467,2.305-2.515,3.563c-2.516,2.515-5.239,3.982-6.916,3.982
		s-0.839-0.42-0.839-1.048v-1.048c0-0.42,0.419-0.839,1.048-1.677l1.258-1.468c1.887-1.886,4.191-3.144,6.287-3.144
		s2.096,0.419,2.096,0.629l0,0"/>
	<path fill="#FFFFFF" d="M248.774,330.44l-13.413,5.029c-4.611,1.258-10.27,2.516-13.204,2.516c-2.934,0-5.239-0.629-8.803-3.563
		c-8.802-2.305-12.994-9.222-12.994-21.377c0-21.378,16.767-40.449,35.21-40.449s12.785,4.82,12.785,10.897
		c0,6.078,0,1.468-0.629,1.468s-0.42-0.21-0.42-1.468c-0.419-5.448-5.239-9.641-10.688-9.641s-10.27,1.887-14.671,5.24
		c-10.897,8.174-18.442,23.473-18.442,37.096s3.353,14.042,8.593,15.719c-2.725-4.82-3.354-7.335-3.354-12.575
		c0-8.593,2.515-16.976,7.964-25.569c6.078-9.431,14.881-15.928,21.587-15.928c6.707,0,10.688,7.335,10.688,17.186
		c0,18.653-13.203,36.887-28.503,39.611c2.096,0.629,2.725,0.629,4.401,0.629c2.515,0,4.61-0.629,9.012-1.677l15.3-6.287v2.515
		L248.774,330.44z M237.665,280.14c-5.029,0-10.688,4.61-16.976,13.413c-6.288,8.803-9.851,19.281-9.851,28.503
		s2.935,11.527,7.755,11.527c7.125,0,15.719-5.868,21.587-14.881c4.401-6.916,7.335-15.928,7.335-22.844
		c0-6.917-3.982-15.51-9.851-15.51"/>
</g>
</svg>
